<?xml version="1.0" encoding="UTF-8"?>
<svg width="498px" height="488px" viewBox="0 0 498 488" version="1.1" xmlns="http://www.w3.org/2000/svg" xmlns:xlink="http://www.w3.org/1999/xlink">
    <!-- Generator: Sketch 49.3 (51167) - http://www.bohemiancoding.com/sketch -->
    <title>Shape</title>
    <desc>Created with Sketch.</desc>
    <defs>
        <linearGradient x1="86.4771586%" y1="0%" x2="53.163435%" y2="95.2257717%" id="linearGradient-1">
            <stop stop-color="#51D3F7" offset="0%"></stop>
            <stop stop-color="#8A51FF" offset="100%"></stop>
        </linearGradient>
    </defs>
    <g id="Page-1" stroke="none" stroke-width="1" fill="none" fill-rule="evenodd">
        <path d="M397.675676,186.432432 L421.22973,88.2972973 C422.689189,88.4459459 424.135135,88.7432432 425.648649,88.7432432 C449.864865,88.7432432 469.567568,69.0405405 469.567568,44.8243243 C469.567568,20.6081081 449.864865,0.905405405 425.648649,0.905405405 C401.418919,0.905405405 381.72973,20.6081081 381.72973,44.8243243 C381.72973,62.7972973 392.608108,78.2432432 408.094595,85.0405405 L384.783784,182.121622 C371.324324,178.310811 357.162162,176.121622 342.486486,176.121622 C300.878378,176.121622 263.135135,192.635135 235.216216,219.337838 L155.013514,129.148649 C169.621622,116.148649 179.013514,97.4189189 179.013514,76.3648649 C179.013514,37.2432432 147.189189,5.41891892 108.067568,5.41891892 C68.9459459,5.41891892 37.1216216,37.2432432 37.1216216,76.3648649 C37.1216216,115.5 68.9459459,147.310811 108.067568,147.310811 C121.256757,147.310811 133.459459,143.459459 144.040541,137.162162 L225.837838,229.148649 C202.216216,255.986486 187.689189,290.945946 187.108108,329.297297 L114.648649,334.918919 C114.689189,334.297297 114.864865,333.716216 114.864865,333.094595 C114.864865,301.418919 89.1081081,275.662162 57.4324324,275.662162 C25.7432432,275.662162 0,301.418919 0,333.094595 C0,364.756757 25.7432432,390.527027 57.4324324,390.527027 C83.6756757,390.527027 105.608108,372.72973 112.445946,348.635135 L187.594595,342.756757 C193.364865,423.283784 260.540541,487.094595 342.540541,487.094595 C428.297297,487.094595 498,417.337838 498,331.594595 C497.972973,265.324324 456.202703,208.756757 397.675676,186.432432 Z M395.243243,44.8108108 C395.243243,28.0405405 408.891892,14.4054054 425.648649,14.4054054 C442.405405,14.4054054 456.054054,28.0405405 456.054054,44.8108108 C456.054054,61.5810811 442.405405,75.2162162 425.648649,75.2162162 C408.891892,75.2162162 395.243243,61.5675676 395.243243,44.8108108 Z M50.6486486,76.3513514 C50.6486486,44.6891892 76.4054054,18.9189189 108.081081,18.9189189 C139.756757,18.9189189 165.513514,44.6891892 165.513514,76.3513514 C165.513514,108.013514 139.756757,133.783784 108.081081,133.783784 C76.4054054,133.783784 50.6486486,108.027027 50.6486486,76.3513514 Z M57.4054054,377.027027 C33.1891892,377.027027 13.4864865,357.337838 13.4864865,333.108108 C13.4864865,308.905405 33.1891892,289.189189 57.4054054,289.189189 C81.6216216,289.189189 101.324324,308.905405 101.324324,333.108108 C101.324324,357.337838 81.6216216,377.027027 57.4054054,377.027027 Z M342.513514,470.351351 C265.891892,470.351351 203.783784,408.216216 203.783784,331.594595 C203.783784,255 265.891892,192.864865 342.513514,192.864865 C419.108108,192.864865 481.216216,255 481.216216,331.594595 C481.202703,408.22973 419.108108,470.351351 342.513514,470.351351 Z M342.513514,207.459459 C273.945946,207.459459 218.351351,263.054054 218.351351,331.621622 C218.351351,400.189189 273.945946,455.783784 342.513514,455.783784 C411.054054,455.783784 466.648649,400.22973 466.648649,331.621622 C466.635135,263.054054 411.054054,207.459459 342.513514,207.459459 Z M425.648649,65.6486486 C414.135135,65.6486486 404.824324,56.3243243 404.824324,44.8108108 C404.824324,33.3108108 414.135135,23.9864865 425.648649,23.9864865 C437.162162,23.9864865 446.5,33.3108108 446.5,44.8108108 C446.5,56.3108108 437.162162,65.6486486 425.648649,65.6486486 Z M149.175676,76.3513514 C149.175676,99.0540541 130.783784,117.459459 108.081081,117.459459 C85.3783784,117.459459 66.9594595,99.0540541 66.9594595,76.3513514 C66.9594595,53.6351351 85.3783784,35.2432432 108.081081,35.2432432 C130.783784,35.2432432 149.175676,53.6486486 149.175676,76.3513514 Z M84.9864865,333.108108 C84.9864865,348.364865 72.6351351,360.716216 57.4054054,360.716216 C42.1756757,360.716216 29.7972973,348.337838 29.7972973,333.108108 C29.7972973,317.878378 42.1756757,305.527027 57.4054054,305.527027 C72.6351351,305.527027 84.9864865,317.878378 84.9864865,333.108108 Z" id="Shape" fill="url(#linearGradient-1)" fill-rule="nonzero"></path>
    </g>
</svg>